<svg width="51" height="47" viewBox="0 0 51 47" fill="none" xmlns="http://www.w3.org/2000/svg">
<rect width="51" height="47" rx="5" fill="#2452CB"/>
<path d="M17.848 28.496V26.48C17.848 26.282 17.686 26.138 17.506 26.138C17.488 26.138 17.488 26.138 17.47 26.138C16.858 26.192 16.282 26.246 15.4 26.246C14.626 26.246 14.176 25.778 14.176 24.446V23.096C14.176 21.764 14.626 21.278 15.4 21.278C16.282 21.278 16.858 21.35 17.47 21.404C17.488 21.404 17.488 21.404 17.506 21.404C17.686 21.404 17.848 21.26 17.848 21.062V19.028C17.848 18.794 17.722 18.704 17.488 18.65C16.984 18.524 16.084 18.362 15.022 18.362C12.268 18.362 10.72 20.162 10.72 23.096V24.446C10.72 27.398 12.268 29.162 15.022 29.162C16.084 29.162 16.876 29.018 17.488 28.874C17.722 28.82 17.848 28.73 17.848 28.496ZM29.3614 18.83C29.3614 18.65 29.1994 18.524 29.0374 18.524H26.0854C25.8874 18.524 25.7254 18.686 25.6894 18.902L24.3394 25.472C24.3034 25.688 24.2134 25.796 24.1054 25.796C23.9974 25.796 23.9254 25.688 23.8894 25.472L22.5394 18.902C22.5034 18.686 22.3414 18.524 22.1434 18.524H19.1914C19.0294 18.524 18.8854 18.65 18.8854 18.83C18.8854 18.866 18.9034 18.884 18.9034 18.92L21.1534 27.092C21.6754 28.982 22.8994 29.162 24.1054 29.162C25.3114 29.162 26.5534 28.982 27.0754 27.092L29.3434 18.92C29.3434 18.884 29.3614 18.866 29.3614 18.83ZM40.0915 24.464V23.06C40.0915 20.018 38.3095 18.362 35.3575 18.362C33.7375 18.362 32.2615 18.614 31.3255 18.812C30.7855 18.938 30.6775 19.082 30.6775 19.388V32.078C30.6775 32.276 30.8755 32.456 31.0735 32.456H33.7735C33.9715 32.456 34.1335 32.276 34.1335 32.078V29.054C34.5115 29.108 35.0695 29.162 35.3575 29.162C38.5435 29.162 40.0915 27.326 40.0915 24.464ZM36.6355 24.464C36.6355 25.526 36.3655 26.318 35.3575 26.318C34.9255 26.318 34.4935 26.264 34.1335 26.228V21.296C34.4755 21.242 34.8355 21.224 35.3575 21.224C36.3655 21.224 36.6355 21.98 36.6355 23.06V24.464Z" fill="white"/>
</svg>
